<svg width="640" height="180" viewBox="0 0 640 180" fill="none" xmlns="http://www.w3.org/2000/svg">
  <defs>
    <linearGradient id="inventoryproBadge" x1="20" y1="20" x2="160" y2="160" gradientUnits="userSpaceOnUse">
      <stop stop-color="#0EA5E9"/>
      <stop offset="1" stop-color="#1D4ED8"/>
    </linearGradient>
    <linearGradient id="inventoryproAccent" x1="52" y1="44" x2="125" y2="117" gradientUnits="userSpaceOnUse">
      <stop stop-color="#FACC15"/>
      <stop offset="1" stop-color="#F97316"/>
    </linearGradient>
  </defs>
  <rect x="20" y="20" width="140" height="140" rx="34" fill="url(#inventoryproBadge)"/>
  <rect x="47" y="42" width="86" height="86" rx="18" fill="white" fill-opacity="0.14"/>
  <path d="M60 112L90 96V123L60 138V112Z" fill="white"/>
  <path d="M90 96L120 112V138L90 123V96Z" fill="url(#inventoryproAccent)"/>
  <path d="M60 82L90 66L120 82L90 98L60 82Z" fill="white"/>
  <path d="M90 66L120 82L90 98L60 82L90 66Z" fill="white" fill-opacity="0.12"/>
  <circle cx="122" cy="58" r="13" fill="url(#inventoryproAccent)"/>
  <path d="M116 58H128" stroke="#0F172A" stroke-width="4" stroke-linecap="round"/>
  <path d="M122 52V64" stroke="#0F172A" stroke-width="4" stroke-linecap="round"/>
  <path d="M210 78H387" stroke="#E2E8F0" stroke-width="2"/>
  <text x="210" y="86" fill="#0F172A" font-family="Arial, Helvetica, sans-serif" font-size="46" font-weight="700" letter-spacing="1.2">Inventory</text>
  <text x="210" y="128" fill="#1D4ED8" font-family="Arial, Helvetica, sans-serif" font-size="46" font-weight="700" letter-spacing="1.2">Pro</text>
  <text x="210" y="153" fill="#64748B" font-family="Arial, Helvetica, sans-serif" font-size="16" font-weight="600" letter-spacing="3">STOCK • SALES • CONTROL</text>
</svg>
